<?xml version="1.0" encoding="UTF-8" standalone="no"?>
<!-- Created with Inkscape (http://www.inkscape.org/) -->

<svg
   width="24"
   height="24"
   viewBox="0 0 6.3499999 6.35"
   version="1.1"
   id="svg1"
   xml:space="preserve"
   xmlns="http://www.w3.org/2000/svg"
   xmlns:svg="http://www.w3.org/2000/svg"><defs
     id="defs1" /><path
     style="fill:#000000;stroke-width:0.0218182"
     d="M 5.77273,6.06136 V 5.77273 H 5.48409 5.19545 V 5.48409 5.19545 H 4.90682 4.61818 V 4.90682 4.61818 H 4.04091 3.46364 V 4.90682 5.19545 H 2.59773 1.73182 V 4.90682 4.61818 H 1.15455 0.57727 V 4.04091 3.46364 H 0.28864 0 V 2.59773 1.73182 H 0.28864 0.57727 V 1.15455 0.57727 H 1.15455 1.73182 V 0.28864 0 H 2.59773 3.46364 V 0.28864 0.57727 H 4.04091 4.61818 V 1.15455 1.73182 H 4.90682 5.19545 V 2.59773 3.46364 H 4.90682 4.61818 V 4.04091 4.61818 H 4.90682 5.19545 V 4.90682 5.19545 H 5.48409 5.77273 V 5.48409 5.77273 H 6.06136 6.35 V 6.06136 6.35 H 6.06136 5.77273 Z M 3.46364,4.32955 V 4.04091 H 3.75227 4.04091 V 3.75227 3.46364 H 4.32955 4.61818 V 2.59773 1.73182 H 4.32955 4.04091 V 1.44318 1.15455 H 3.75227 3.46364 V 0.86591 0.57727 H 2.59773 1.73182 V 0.86591 1.15455 H 1.44318 1.15455 V 1.44318 1.73182 H 0.86591 0.57727 v 0.86591 0.86591 h 0.28864 0.28864 v 0.28863 0.28864 h 0.28863 0.28864 v 0.28864 0.28863 h 0.86591 0.86591 z"
     id="path1" /></svg>
