<?xml version="1.0" encoding="UTF-8" standalone="no"?>
<!-- Created with Inkscape (http://www.inkscape.org/) -->

<svg
   width="24"
   height="24"
   viewBox="0 0 6.3499999 6.35"
   version="1.1"
   id="svg1"
   xml:space="preserve"
   xmlns="http://www.w3.org/2000/svg"
   xmlns:svg="http://www.w3.org/2000/svg"><defs
     id="defs1" /><path
     style="display:inline;fill:#000000;stroke-width:0.0184616"
     d="M 2.93077,6.10577 V 5.86154 H 3.175 3.41923 V 6.10577 6.35 H 3.175 2.93077 Z M 0.48846,5.61731 V 5.37308 H 0.73269 0.97692 V 5.61731 5.86154 H 0.73269 0.48846 Z m 4.88462,0 V 5.37308 H 5.61731 5.86154 V 5.61731 5.86154 H 5.61731 5.37308 Z M 2.44231,5.12885 V 4.88462 H 1.95385 1.46538 V 4.39615 3.90769 H 1.22115 0.97692 V 3.175 2.44231 H 1.22115 1.46538 V 1.95385 1.46539 H 1.95385 2.44231 V 1.22115 0.97692 H 3.175 3.90769 V 1.22115 1.46539 H 4.39615 4.88461 V 1.95385 2.44231 H 5.12885 5.37308 V 3.175 3.90769 H 5.12885 4.88461 V 4.39615 4.88462 H 4.39615 3.90769 V 5.12885 5.37308 H 3.175 2.44231 Z M 3.90769,4.64038 V 4.39615 H 4.15192 4.39615 V 4.15192 3.90769 H 4.64038 4.88461 V 3.175 2.44231 H 4.64038 4.39615 V 2.19808 1.95385 H 4.15192 3.90769 V 1.70961 1.46539 H 3.175 2.44231 V 1.70961 1.95385 H 2.19808 1.95385 V 2.19808 2.44231 H 1.70961 1.46538 V 3.175 3.90769 H 1.70961 1.95385 V 4.15192 4.39615 H 2.19808 2.44231 V 4.64039 4.88462 H 3.175 3.90769 Z M 0,3.175 V 2.93077 H 0.24423 0.48846 V 3.175 3.41923 H 0.24423 0 Z m 5.86154,0 V 2.93077 H 6.10577 6.35 V 3.175 3.41923 H 6.10577 5.86154 Z M 0.48846,0.73269 V 0.48846 H 0.73269 0.97692 V 0.73269 0.97692 H 0.73269 0.48846 Z m 4.88462,0 V 0.48846 H 5.61731 5.86154 V 0.73269 0.97692 H 5.61731 5.37308 Z M 2.93077,0.24423 V 0 H 3.175 3.41923 V 0.24423 0.48846 H 3.175 2.93077 Z"
     id="path1" /><path
     style="display:none;fill:#000000;stroke-width:0.0218182"
     d="M 2.30909,6.06136 V 5.77273 H 1.73182 1.15455 V 5.48409 5.19546 H 0.86591 0.57727 V 4.61818 4.04091 H 0.28864 0 V 3.175 2.30909 H 0.28864 0.57727 V 1.73182 1.15455 H 0.86591 1.15455 V 0.86591 0.57727 H 1.44318 1.73182 V 0.28864 0 H 2.59773 3.46364 V 0.28864 0.57727 H 3.175 2.88636 V 1.15455 1.73182 H 2.59773 2.30909 V 2.30909 2.88636 H 2.59773 2.88636 V 3.175 3.46364 H 3.175 3.46364 V 3.75227 4.04091 H 4.04091 4.61818 V 3.75227 3.46364 H 5.19546 5.77273 V 3.175 2.88636 H 6.06136 6.35 V 3.75227 4.61818 H 6.06136 5.77273 V 4.90682 5.19546 H 5.48409 5.19546 V 5.48409 5.77273 H 4.61818 4.04091 V 6.06136 6.35 H 3.175 2.30909 Z M 4.04091,5.48409 V 5.19546 H 4.61818 5.19546 V 4.90682 4.61818 H 5.48409 5.77273 V 4.32955 4.04091 H 5.19546 4.61818 V 4.32955 4.61818 H 4.04091 3.46364 V 4.32955 4.04091 H 3.175 2.88636 V 3.75227 3.46364 H 2.59773 2.30909 V 3.175 2.88636 H 2.02046 1.73182 V 2.30909 1.73182 H 2.02046 2.30909 V 1.15455 0.57727 H 2.02046 1.73182 V 0.86591 1.15455 H 1.44318 1.15455 V 1.73182 2.30909 H 0.86591 0.57727 V 3.175 4.04091 H 0.86591 1.15455 V 4.61818 5.19546 H 1.73182 2.30909 V 5.48409 5.77273 H 3.175 4.04091 Z"
     id="path2" /></svg>
