<svg xmlns="http://www.w3.org/2000/svg" viewBox="0 0 64 64" role="img" aria-label="Hitsuji">
  <rect width="64" height="64" rx="8" fill="#0b1120" />
  <rect x="2" y="2" width="60" height="60" rx="6" fill="none" stroke="#758eaf" stroke-width="3" />
  <path
    fill="#edf4ff"
    d="M28.361 19.738v31.261h6.063V19.738ZM14.085 17.459v5.504H49.13v-5.504Zm1.978 9.417v5.461h30.702v-5.461ZM12.15 36.508v5.461h38.786v-5.461Zm6.622-24.381c1.29 1.978 2.752 4.644 3.225 6.364l5.59-2.064c-.688-1.72-2.193-4.257-3.569-6.149Zm20.081-1.978c-.688 1.978-2.064 4.687-3.139 6.536l5.031 1.462c1.247-1.591 2.924-3.999 4.472-6.493Z"
  />
</svg>
