<svg xmlns="http://www.w3.org/2000/svg" viewBox="0 0 64 64" role="img" aria-label="Hitsuji plus plus">
  <g fill="#000">
    <path d="M22.361 19.738v31.261h6.063V19.738ZM8.085 17.459v5.504H43.13v-5.504Zm1.978 9.417v5.461h30.702v-5.461ZM6.15 36.508v5.461h38.786v-5.461Zm6.622-24.381c1.29 1.978 2.752 4.644 3.225 6.364l5.59-2.064c-.688-1.72-2.193-4.257-3.569-6.149Zm20.081-1.978c-.688 1.978-2.064 4.687-3.139 6.536l5.031 1.462c1.247-1.591 2.924-3.999 4.472-6.493Z" />
    <path d="M44.302 41.074h2.16v-3.798h3.618v-2.07h-3.618v-3.798h-2.16v3.798h-3.618v2.07h3.618Zm10.782 0h2.16v-3.798h3.618v-2.07h-3.618v-3.798h-2.16v3.798h-3.618v2.07h3.618Z" />
  </g>
</svg>
