<?xml version="1.0" encoding="UTF-8" standalone="no"?>
<svg
   version="1.1"
   id="Layer_1"
   x="0px"
   y="0px"
   width="350"
   viewBox="0 0 350 371.4607"
   enable-background="new 0 0 1440 1798"
   xml:space="preserve"
   height="371.46069"
   xmlns="http://www.w3.org/2000/svg"
   xmlns:svg="http://www.w3.org/2000/svg"><defs
   id="defs4" />




<g
   id="layer1"
   transform="matrix(0.53038501,0,0,0.53038501,-207.42252,-362.38244)"
   style="display:inline"><path
     id="path10"
     style="display:inline;fill:#8290aa;fill-opacity:1;stroke:none;stroke-width:17.4525;stroke-linecap:round"
     d="m 721.08489,683.24433 c -16.93677,0.01 -33.87388,6.44834 -47.95442,19.30674 -17.84698,16.29791 -39.19144,22.17938 -62.98367,17.8283 -21.17464,-3.87243 -40.36352,0.3962 -57.81073,12.75521 -15.15362,10.73426 -23.85899,25.87931 -30.13578,43.03916 -7.88684,21.56171 -22.56122,37.50191 -44.22449,45.44202 -35.57993,13.0408 -57.87719,50.9852 -51.10458,91.1192 4.18015,24.7712 -0.9145,47.395 -16.48514,67.2773 -0.73667,0.9407 -1.3148,1.9193 -2.00991,2.8699 -0.15485,0.2018 -0.33086,0.3673 -0.48315,0.5734 -1.40832,1.9052 -2.72686,3.8273 -3.9554,5.7656 -13.79235,21.76014 -16.29608,45.58084 -8.43904,70.99114 0.97578,3.1558 2.19812,6.1618 3.60753,9.0607 1.84255,4.0824 4.07147,7.9615 6.78344,11.5667 2.78443,4.1329 5.81185,8.1596 8.86745,12.243 11.72329,18.5695 15.28633,38.3677 12.26883,59.6725 -1.0663,7.5258 -1.74572,15.3227 -1.03072,22.8466 3.0189,31.7723 18.59051,55.5266 48.31195,67.8506 24.79474,10.2812 41.04878,27.2764 49.80329,52.4091 13.1178,37.6586 50.81898,57.9823 86.94156,50.5184 23.24988,-4.8041 44.41268,1.9412 61.9626,17.9603 28.16682,25.7104 67.75099,25.6752 95.91207,-0.042 17.84697,-16.2979 39.19145,-22.1793 62.98367,-17.8283 21.17463,3.8725 40.3635,-0.3963 57.81072,-12.7553 15.15362,-10.7342 23.859,-25.8792 30.13578,-43.0391 7.88685,-21.5617 22.56123,-37.5018 44.2245,-45.442 35.58001,-13.0408 57.87715,-50.9852 51.10455,-91.1192 -4.1801,-24.7711 0.9146,-47.395 16.4852,-67.2773 0.7324,-0.9353 1.3057,-1.9087 1.997,-2.8538 0.1591,-0.2071 0.3395,-0.3779 0.496,-0.5895 1.4241,-1.9266 2.7538,-3.8728 3.9941,-5.8332 13.7562,-21.7423 16.2496,-45.5384 8.4004,-70.9235 -0.9788,-3.1656 -2.2053,-6.1791 -3.6204,-9.08654 -1.8373,-4.0654 -4.0576,-7.9297 -6.7577,-11.5215 -2.7882,-4.1397 -5.8202,-8.1728 -8.8804,-12.2624 -11.7233,-18.5695 -15.2863,-38.3677 -12.2688,-59.6725 1.0663,-7.5258 1.7457,-15.3228 1.0307,-22.8466 -3.0189,-31.7724 -18.59048,-55.5267 -48.31192,-67.8507 -24.79474,-10.28116 -41.04878,-27.27641 -49.80329,-52.40905 -13.1178,-37.65863 -50.81899,-57.98222 -86.94155,-50.51835 -23.24988,4.80408 -44.41267,-1.94125 -61.9626,-17.96036 -14.0834,-12.85506 -31.02088,-19.27486 -47.95765,-19.26487 z" /><path
     fill="#fffefb"
     opacity="1"
     stroke="none"
     d="m 763,835.20123 c 29.32153,-0.0455 58.14307,-0.13171 86.9646,-0.12109 16.33734,0.006 27.91492,11.21173 27.91553,26.83057 6.1e-4,15.79241 -11.34473,26.95458 -27.66614,27.07434 -12.16113,0.0892 -24.32337,0.0214 -36.48511,0.0235 -1.77972,2.4e-4 -3.55945,0 -5.84527,0 0.2901,3.44341 0.61145,6.21758 0.74505,9.00085 1.7779,37.04944 -4.10949,72.4552 -23.71966,104.5607 -10.81562,17.7074 -24.91284,32.1142 -45.28669,38.8416 -20.83752,6.8805 -39.88592,2.469 -57.0122,-10.3895 -21.6753,-16.2738 -33.80878,-38.99937 -41.49713,-64.3604 -7.13117,-23.52325 -9.50006,-47.60278 -7.3628,-72.10986 0.0991,-1.13678 0.0128,-2.28967 0.0128,-4.16888 -8.28796,0 -16.38306,0.0161 -24.47803,-0.005 -7.15887,-0.0185 -14.35065,0.34588 -21.46936,-0.20954 -14.02569,-1.09418 -23.64813,-12.4552 -23.70794,-27.31543 -0.0576,-14.30017 9.65429,-26.17248 23.48889,-26.91064 16.11633,-0.85974 32.29943,-0.55982 48.45398,-0.59687 42.14971,-0.0967 84.29968,-0.10259 126.94952,-0.14459 M 704.619,975.88221 c 5.1936,5.55072 10.38727,11.10144 16.43921,17.56945 2.81054,-3.36242 4.57336,-5.79815 6.66198,-7.91204 8.06519,-8.16254 16.27076,-16.18616 24.34742,-24.33747 3.41064,-3.44226 3.56823,-7.56195 0.66345,-10.6709 -2.95758,-3.1654 -6.92316,-3.14727 -10.60504,0.14356 -1.61005,1.43915 -3.11585,2.99982 -4.61548,4.55688 -5.28046,5.48304 -10.53784,10.98816 -16.70532,17.42591 -7.22858,-7.61286 -13.65864,-14.53534 -20.26478,-21.28546 -3.90917,-3.99421 -8.24646,-4.15583 -11.32153,-0.79316 -2.94617,3.22193 -2.52917,7.2959 1.16187,11.01703 4.56866,4.60596 9.15667,9.19257 14.23822,14.2862 z"
     id="path3"
     style="display:inline" /><path
     fill="#46566f"
     opacity="1"
     stroke="none"
     d="m 704.36804,975.63312 c -4.83063,-4.8443 -9.41864,-9.43091 -13.9873,-14.03687 -3.69104,-3.72113 -4.10804,-7.7951 -1.16187,-11.01703 3.07507,-3.36267 7.41236,-3.20105 11.32153,0.79316 6.60614,6.75012 13.0362,13.6726 20.26478,21.28546 6.16748,-6.43775 11.42486,-11.94287 16.70532,-17.42591 1.49963,-1.55706 3.00543,-3.11773 4.61548,-4.55688 3.68188,-3.29083 7.64746,-3.30896 10.60504,-0.14356 2.90478,3.10895 2.74719,7.22864 -0.66345,10.6709 -8.07666,8.15131 -16.28223,16.17493 -24.34742,24.33747 -2.08862,2.11389 -3.85144,4.54962 -6.66198,7.91204 -6.05194,-6.46801 -11.24561,-12.01873 -16.69013,-17.81878 z"
     id="path4"
     style="display:inline" /></g></svg>
